<svg width="946" height="272" viewBox="0 0 946 272" fill="none" xmlns="http://www.w3.org/2000/svg">
<g filter="url(#filter0_d)">
<path fill-rule="evenodd" clip-rule="evenodd" d="M908.5 162.659C908.5 162.981 908.276 163.241 908 163.241C900.235 163.241 896.096 165.241 889.479 168.438C888.962 168.688 888.429 168.945 887.879 169.209C886.957 169.651 885.907 169.378 884.858 168.751C883.799 168.118 882.642 167.067 881.437 165.752C879.022 163.117 876.319 159.318 873.681 155.341C871.912 152.675 870.16 149.911 868.538 147.35C867.74 146.092 866.974 144.882 866.252 143.758C865.153 142.047 864.158 140.532 863.305 139.329C862.443 138.113 861.756 137.254 861.27 136.822C848.304 125.267 830.184 134.676 827.081 150.95C826.317 154.959 825.492 157.971 824.594 160.179C823.697 162.384 822.709 163.835 821.596 164.659C819.323 166.342 816.799 165.242 814.231 163.635C813.465 163.156 812.686 162.626 811.889 162.084C809.925 160.749 807.847 159.335 805.566 158.403C802.406 157.112 798.935 156.789 795.06 159.047C793.877 159.736 792.211 161.381 790.343 163.525C788.49 165.652 786.485 168.215 784.63 170.682C782.779 173.144 781.082 175.503 779.843 177.226L779.838 177.233C779.219 178.094 778.712 178.799 778.358 179.277C778.182 179.514 778.038 179.704 777.935 179.83C777.887 179.889 777.832 179.952 777.781 180L777.78 180.002C777.763 180.018 777.701 180.078 777.614 180.116C777.58 180.131 777.431 180.195 777.252 180.117C777.015 180.012 776.944 179.766 776.93 179.638C776.311 173.868 773.533 167.646 769.621 163.1C765.706 158.552 760.733 155.765 755.74 156.66C747.661 158.108 742.995 163.79 739.106 170.626C737.862 172.813 736.711 175.091 735.553 177.384C734.89 178.698 734.224 180.016 733.537 181.325C731.662 184.896 729.648 188.353 727.162 191.249C726.855 191.608 726.512 191.837 726.136 191.92C725.762 192.002 725.401 191.928 725.071 191.773C724.434 191.472 723.836 190.83 723.306 190.179C723.035 189.845 722.766 189.49 722.508 189.148L722.506 189.145C722.246 188.801 721.998 188.472 721.755 188.175C721.511 187.876 721.285 187.622 721.073 187.429C720.858 187.233 720.683 187.123 720.546 187.077C718.67 186.452 716.151 186.309 713.597 186.471C711.05 186.632 708.513 187.094 706.619 187.645C703.58 188.531 699.722 190.86 695.414 193.828C693.076 195.44 690.644 197.211 688.157 199.022C686.049 200.557 683.902 202.121 681.738 203.641C677.055 206.932 672.359 209.968 668.073 211.859C663.806 213.741 659.841 214.535 656.674 213.175C654.253 212.136 652.116 211.025 650.105 209.95C649.752 209.761 649.403 209.573 649.057 209.387C647.43 208.512 645.873 207.675 644.282 206.925C640.441 205.114 636.42 203.819 630.893 203.819C628.352 203.819 626.918 204.451 625.967 205.235C625.485 205.631 625.109 206.081 624.766 206.549C624.616 206.753 624.476 206.957 624.333 207.164L624.266 207.261C624.102 207.498 623.933 207.739 623.756 207.969C623.399 208.429 622.992 208.864 622.457 209.176C621.919 209.49 621.283 209.663 620.488 209.655C618.925 209.639 616.704 208.923 613.281 207.15C608.167 204.501 603.576 200.26 599.041 195.86C598.511 195.346 597.981 194.83 597.452 194.313C593.435 190.394 589.415 186.473 585.019 183.449C583.581 182.46 581.038 180.301 577.826 177.573C576.707 176.623 575.506 175.603 574.243 174.54C569.332 170.408 563.431 165.582 557.528 161.461C551.615 157.334 545.743 153.946 540.884 152.654C538.456 152.007 536.324 151.897 534.582 152.439C532.862 152.975 531.499 154.155 530.584 156.169C527.827 162.238 528.022 168.92 528.222 175.745C528.238 176.278 528.253 176.811 528.267 177.346C528.462 184.663 528.391 192.075 524.089 198.521C518.097 207.499 513.877 218.605 513.877 230.287C513.877 233.257 513.135 242.057 512.019 249.736C511.461 253.575 510.804 257.172 510.09 259.635C509.738 260.852 509.352 261.862 508.923 262.478C508.708 262.786 508.437 263.063 508.098 263.162C507.724 263.271 507.376 263.134 507.092 262.858C504.369 260.213 499.831 258.904 494.343 258.257C489.648 257.703 484.348 257.64 479.051 257.577C478.18 257.567 477.31 257.557 476.442 257.544C470.314 257.456 464.318 257.259 459.501 256.161C454.714 255.07 450.904 253.048 449.407 249.122C448.476 246.683 448.088 244.325 447.819 242.183C447.757 241.691 447.701 241.214 447.648 240.752C447.465 239.174 447.302 237.767 446.966 236.51C446.544 234.926 445.861 233.646 444.539 232.696C443.193 231.728 441.138 231.067 437.908 230.869C433.332 230.588 430.231 229.641 428.128 228.032C425.999 226.402 424.951 224.14 424.395 221.408C423.915 219.053 423.793 216.298 423.659 213.265C423.639 212.827 423.62 212.382 423.599 211.933C423.431 208.347 423.175 204.35 422.295 199.988C422.153 199.286 422.008 198.245 421.844 197.064C421.796 196.719 421.746 196.362 421.694 195.998C421.463 194.367 421.185 192.56 420.819 190.92C420.449 189.264 420.003 187.846 419.459 186.951C419.19 186.508 418.922 186.237 418.664 186.106C418.422 185.984 418.148 185.965 417.804 186.12C409.485 189.89 400.93 192.529 392.349 195.175L391.797 195.346C385.018 197.437 380.363 198.568 377.078 198.736C373.776 198.905 371.75 198.103 370.356 196.202C369.677 195.275 369.172 194.12 368.732 192.776C368.291 191.435 367.902 189.868 367.47 188.107L367.416 187.886C366.557 184.393 365.496 180.073 363.487 174.923C361.75 170.468 359.341 167.415 356.591 164.681C355.36 163.457 354.065 162.301 352.728 161.108C352.568 160.964 352.406 160.82 352.244 160.675C350.739 159.33 349.19 157.925 347.651 156.331C346.534 155.174 344.772 153.961 342.7 152.674C341.791 152.109 340.807 151.521 339.8 150.919C338.565 150.181 337.297 149.423 336.094 148.664C333.883 147.27 331.767 145.798 330.156 144.237C328.56 142.69 327.369 140.97 327.176 139.057C326.787 135.212 325.482 133.44 323.809 132.8C322.064 132.132 319.749 132.62 317.23 133.792C312.219 136.123 306.829 140.945 304.61 143.013C301.905 145.535 299.228 147.995 296.587 150.421C277.243 168.195 259.806 184.216 247.022 210.288L246.926 210.483C245.754 212.876 241.684 221.185 237.74 226.537C236.724 227.917 235.701 229.12 234.724 229.979C233.763 230.824 232.773 231.4 231.837 231.377C230.835 231.352 230.04 230.651 229.494 229.355C228.96 228.087 228.63 226.185 228.517 223.553C228.178 215.654 225.685 207.209 222.463 199.008C219.946 192.602 217 186.384 214.315 180.714C213.562 179.126 212.831 177.581 212.134 176.087C199.019 147.944 184.479 118.948 161.67 100.392C160.015 99.0461 158.536 97.8731 157.194 96.8091C153.62 93.9748 151.022 91.9147 148.684 89.4176C145.447 85.9593 142.704 81.6657 138.474 73.3482C138.162 72.734 137.848 72.1153 137.533 71.4935C133.217 62.98 128.606 53.8829 122.92 47.6091C119.878 44.2524 116.55 41.731 112.823 40.5396C109.102 39.3505 104.947 39.4744 100.226 41.4753C98.5808 42.1722 96.8215 43.5861 95.0311 45.4589C93.2457 47.3266 91.4563 49.6218 89.7497 52.043C86.965 55.9937 84.4245 60.2443 82.4942 63.474C82.0568 64.2059 81.6506 64.8855 81.2801 65.4972C67.4955 88.2542 49.8332 105.999 31.9628 123.953C29.0851 126.844 26.202 129.741 23.3289 132.665C23.1208 132.877 22.805 132.852 22.6233 132.609C22.4418 132.367 22.4631 131.999 22.6711 131.787C25.553 128.854 28.4414 125.952 31.3216 123.058C49.1965 105.098 66.7552 87.4557 80.4631 64.8252C80.8283 64.2222 81.2305 63.5494 81.665 62.8223C83.5949 59.593 86.1641 55.294 88.9769 51.3033C90.7013 48.857 92.5262 46.5131 94.3631 44.5917C96.1949 42.6755 98.0657 41.1505 99.8838 40.3801C104.782 38.3045 109.149 38.157 113.087 39.4158C117.018 40.6724 120.486 43.3184 123.607 46.7629C129.401 53.1551 134.081 62.3907 138.377 70.8659C138.698 71.5001 139.017 72.13 139.335 72.7541C143.549 81.0415 146.232 85.2173 149.36 88.5585C151.641 90.9947 154.155 92.9888 157.698 95.7983C159.049 96.8694 160.549 98.0591 162.242 99.4369C185.269 118.17 199.905 147.405 213.013 175.531C213.703 177.01 214.43 178.545 215.179 180.127C217.867 185.802 220.837 192.073 223.372 198.523C226.612 206.771 229.167 215.375 229.516 223.495C229.626 226.073 229.948 227.786 230.392 228.842C230.824 229.869 231.333 230.199 231.859 230.212C232.45 230.227 233.212 229.849 234.122 229.049C235.018 228.261 235.987 227.127 236.982 225.778C240.86 220.515 244.89 212.288 246.063 209.894L246.153 209.71C259.04 183.428 276.637 167.263 295.973 149.501C298.614 147.075 301.287 144.619 303.985 142.103C306.201 140.037 311.695 135.112 316.86 132.71C319.429 131.515 322.026 130.891 324.121 131.693C326.289 132.522 327.753 134.802 328.169 138.921C328.315 140.372 329.249 141.842 330.795 143.34C332.327 144.824 334.371 146.252 336.57 147.639C337.789 148.408 339.018 149.142 340.228 149.865C341.228 150.462 342.214 151.051 343.171 151.646C345.239 152.931 347.099 154.2 348.316 155.46C349.825 157.024 351.35 158.406 352.853 159.751C353.015 159.895 353.177 160.04 353.338 160.184C354.672 161.375 355.988 162.549 357.24 163.795C360.057 166.596 362.58 169.779 364.398 174.44C366.438 179.67 367.516 184.059 368.374 187.555L368.431 187.786C368.866 189.558 369.244 191.074 369.666 192.36C370.087 193.645 370.542 194.661 371.116 195.445C372.229 196.963 373.888 197.733 377.035 197.572C380.199 197.41 384.758 196.312 391.541 194.219L392.071 194.056C400.668 191.404 409.176 188.78 417.442 185.034C418.01 184.777 418.558 184.783 419.061 185.037C419.547 185.282 419.946 185.736 420.275 186.278C420.93 187.354 421.411 188.947 421.786 190.626C422.165 192.321 422.449 194.172 422.681 195.807C422.735 196.19 422.787 196.559 422.836 196.911C422.999 198.082 423.135 199.062 423.268 199.721C424.17 204.187 424.429 208.268 424.597 211.869C424.618 212.325 424.638 212.771 424.658 213.209C424.794 216.26 424.911 218.895 425.368 221.139C425.883 223.669 426.819 225.635 428.677 227.058C430.562 228.5 433.453 229.429 437.961 229.705C441.263 229.908 443.512 230.588 445.064 231.704C446.639 232.837 447.445 234.381 447.921 236.164C448.284 237.524 448.462 239.062 448.647 240.659C448.699 241.107 448.751 241.559 448.808 242.014C449.073 244.121 449.445 246.354 450.32 248.648C451.602 252.008 454.95 253.936 459.693 255.017C464.407 256.092 470.314 256.291 476.454 256.379C477.317 256.391 478.185 256.401 479.054 256.412C484.347 256.474 489.699 256.537 494.444 257.097C499.947 257.747 504.758 259.074 507.733 261.963C507.826 262.054 507.855 262.032 507.855 262.031C507.891 262.021 507.992 261.966 508.147 261.744C508.455 261.3 508.795 260.463 509.143 259.262C509.83 256.89 510.476 253.369 511.033 249.541C512.145 241.887 512.877 233.161 512.877 230.287C512.877 218.279 517.211 206.929 523.299 197.806C527.359 191.724 527.463 184.711 527.268 177.382C527.253 176.834 527.237 176.284 527.221 175.733C527.02 168.97 526.812 161.981 529.7 155.623C530.75 153.313 532.344 151.93 534.324 151.313C536.284 150.703 538.596 150.849 541.106 151.517C546.126 152.853 552.11 156.322 558.041 160.462C563.983 164.609 569.912 169.459 574.828 173.595C576.119 174.682 577.338 175.716 578.467 176.675C581.656 179.383 584.134 181.487 585.527 182.446C589.999 185.521 594.086 189.509 598.095 193.421C598.625 193.937 599.153 194.453 599.681 194.964C604.22 199.368 608.715 203.51 613.687 206.085C617.09 207.847 619.151 208.476 620.497 208.49C621.156 208.496 621.632 208.354 622.009 208.134C622.389 207.912 622.7 207.592 623.013 207.188C623.17 206.985 623.323 206.766 623.487 206.53C623.649 206.296 623.821 206.044 624.006 205.792C624.378 205.284 624.815 204.756 625.39 204.283C626.551 203.327 628.202 202.653 630.893 202.653C636.576 202.653 640.726 203.991 644.657 205.845C646.273 206.607 647.855 207.458 649.484 208.333C649.828 208.518 650.173 208.704 650.522 208.891C652.527 209.963 654.636 211.058 657.02 212.082C659.833 213.29 663.504 212.628 667.719 210.769C671.916 208.918 676.547 205.928 681.222 202.643C683.345 201.152 685.49 199.59 687.604 198.051C690.113 196.224 692.577 194.43 694.905 192.825C699.208 189.86 703.18 187.446 706.376 186.515C708.336 185.944 710.937 185.473 713.543 185.308C716.14 185.143 718.788 185.28 720.82 185.956C721.133 186.06 721.425 186.27 721.689 186.511C721.956 186.755 722.222 187.055 722.48 187.372C722.736 187.686 722.995 188.029 723.25 188.367L723.259 188.378C723.519 188.723 723.775 189.062 724.032 189.377C724.558 190.023 725.028 190.495 725.446 190.692C725.644 190.785 725.808 190.806 725.951 190.775C726.093 190.743 726.261 190.651 726.455 190.425C728.855 187.628 730.82 184.265 732.684 180.717C733.351 179.445 734.009 178.143 734.669 176.836C735.838 174.521 737.016 172.19 738.272 169.982C742.227 163.031 747.102 157.029 755.588 155.508C761.007 154.536 766.28 157.574 770.327 162.275C774.109 166.669 776.886 172.59 777.765 178.293C778.1 177.836 778.542 177.221 779.071 176.485L779.078 176.476C780.317 174.753 782.019 172.385 783.878 169.913C785.739 167.438 787.763 164.851 789.641 162.695C791.504 160.556 793.271 158.786 794.612 158.005C798.783 155.575 802.544 155.933 805.897 157.303C808.275 158.275 810.488 159.78 812.48 161.135C813.256 161.662 813.999 162.167 814.704 162.609C817.304 164.236 819.321 164.963 821.059 163.676C821.951 163.015 822.835 161.782 823.69 159.68C824.543 157.582 825.348 154.664 826.105 150.697C829.356 133.646 848.293 123.791 861.877 135.896C862.464 136.419 863.216 137.373 864.076 138.587C864.945 139.813 865.952 141.346 867.052 143.059C867.782 144.196 868.552 145.411 869.352 146.673C870.971 149.228 872.709 151.972 874.472 154.629C877.106 158.598 879.768 162.334 882.12 164.901C883.298 166.186 884.376 167.153 885.315 167.715C886.265 168.282 886.979 168.381 887.498 168.131C888.052 167.866 888.589 167.606 889.111 167.354C895.729 164.156 900.032 162.076 908 162.076C908.276 162.076 908.5 162.337 908.5 162.659Z" fill="white"/>
<path d="M78.0869 10.8352H80.8746C82.5649 10.8352 83.3284 9.85441 83.3284 8.55498C83.3284 7.24313 82.54 6.50238 81.8192 6.45686V6.37409C82.4868 6.17545 83.0443 5.64575 83.0443 4.58634C83.0443 3.33243 82.2986 2.35993 80.7503 2.35993H78.0869V10.8352ZM79.1842 9.73854V7.02381H80.8071C81.6878 7.02381 82.2382 7.68593 82.2382 8.4929C82.2382 9.20469 81.8227 9.73854 80.768 9.73854H79.1842ZM79.1842 6.02647V3.4483H80.6828C81.5528 3.4483 81.9683 3.98215 81.9683 4.68566C81.9683 5.50504 81.393 6.02647 80.6544 6.02647H79.1842Z" fill="white"/>
<path d="M86.1299 10.8352H90.7322V9.7344H87.2272V7.13968H90.4516V6.04303H87.2272V3.46072H90.6895V2.35993H86.1299V10.8352Z" fill="white"/>
<path d="M93.1048 10.8352H93.4173C95.0722 10.8352 95.4699 9.40333 95.5658 6.68033L95.6794 3.44417H98.1617V10.8352H99.2448V2.35993H94.646L94.5217 6.34098C94.4436 8.795 94.1879 9.69302 93.3179 9.71784L93.1048 9.72612V10.8352Z" fill="white"/>
<path d="M102.343 2.35993V10.8352H103.351L107.048 4.61945H107.116V10.8352H108.213V2.35993H107.197L103.497 8.58395H103.429V2.35993H102.343Z" fill="white"/>
<path d="M115.621 10.8352H116.96L113.959 6.192L116.978 2.35993H115.617L112.787 5.93957H112.411V2.35993H111.313V10.8352H112.411V7.03622H113.164L115.621 10.8352Z" fill="white"/>
<path d="M119.571 2.35993V10.8352H120.58L124.277 4.61945H124.344V10.8352H125.441V2.35993H124.426L120.725 8.58395H120.658V2.35993H119.571Z" fill="white"/>
<path d="M128.542 2.35993V10.8352H129.551L133.247 4.61945H133.315V10.8352H134.412V2.35993H133.396L129.696 8.58395H129.629V2.35993H128.542ZM132.175 0.208008C132.175 0.625977 131.976 0.994287 131.479 0.994287C130.975 0.994287 130.786 0.621839 130.786 0.208008H129.916C129.916 1.13913 130.524 1.78057 131.479 1.78057C132.441 1.78057 133.048 1.13913 133.048 0.208008H132.175Z" fill="white"/>
<path d="M73.5381 24.8194H74.6354V21.1239H78.2611V24.8194H79.3619V16.3441H78.2611V20.0272H74.6354V16.3441H73.5381V24.8194Z" fill="white"/>
<path d="M88.7774 20.5817C88.7774 17.8711 87.3854 16.2282 85.5033 16.2282C83.6141 16.2282 82.2256 17.8711 82.2256 20.5817C82.2256 23.2882 83.6141 24.9352 85.5033 24.9352C87.3854 24.9352 88.7774 23.2923 88.7774 20.5817ZM87.6908 20.5817C87.6908 22.6468 86.7533 23.7682 85.5033 23.7682C84.2497 23.7682 83.3158 22.6468 83.3158 20.5817C83.3158 18.5167 84.2497 17.3952 85.5033 17.3952C86.7533 17.3952 87.6908 18.5167 87.6908 20.5817Z" fill="white"/>
<path d="M91.6455 24.8194H94.4331C96.1235 24.8194 96.887 23.8386 96.887 22.5392C96.887 21.2273 96.0986 20.4866 95.3778 20.441V20.3583C96.0454 20.1596 96.6029 19.6299 96.6029 18.5705C96.6029 17.3166 95.8572 16.3441 94.3089 16.3441H91.6455V24.8194ZM92.7428 23.7227V21.008H94.3657C95.2464 21.008 95.7968 21.6701 95.7968 22.4771C95.7968 23.1889 95.3813 23.7227 94.3266 23.7227H92.7428ZM92.7428 20.0106V17.4325H94.2414C95.1114 17.4325 95.5269 17.9663 95.5269 18.6698C95.5269 19.4892 94.9516 20.0106 94.213 20.0106H92.7428Z" fill="white"/>
<path d="M104.223 16.3441H99.6885V24.8194H100.786V17.4449H104.223V16.3441Z" fill="white"/>
<path d="M112.975 20.5817C112.975 17.8711 111.583 16.2282 109.701 16.2282C107.811 16.2282 106.423 17.8711 106.423 20.5817C106.423 23.2882 107.811 24.9352 109.701 24.9352C111.583 24.9352 112.975 23.2923 112.975 20.5817ZM111.888 20.5817C111.888 22.6468 110.951 23.7682 109.701 23.7682C108.447 23.7682 107.513 22.6468 107.513 20.5817C107.513 18.5167 108.447 17.3952 109.701 17.3952C110.951 17.3952 111.888 18.5167 111.888 20.5817Z" fill="white"/>
<path d="M115.843 24.8194H116.94V21.8398H118.432C120.118 21.8398 120.953 20.6521 120.953 19.0878C120.953 17.5277 120.125 16.3441 118.435 16.3441H115.843V24.8194ZM116.94 20.7555V17.4408H118.318C119.405 17.4408 119.848 18.1277 119.848 19.0878C119.848 20.0479 119.405 20.7555 118.332 20.7555H116.94Z" fill="white"/>
<path d="M130.057 20.5817C130.057 17.8711 128.665 16.2282 126.783 16.2282C124.893 16.2282 123.505 17.8711 123.505 20.5817C123.505 23.2882 124.893 24.9352 126.783 24.9352C128.665 24.9352 130.057 23.2923 130.057 20.5817ZM128.97 20.5817C128.97 22.6468 128.033 23.7682 126.783 23.7682C125.529 23.7682 124.595 22.6468 124.595 20.5817C124.595 18.5167 125.529 17.3952 126.783 17.3952C128.033 17.3952 128.97 18.5167 128.97 20.5817Z" fill="white"/>
<path d="M132.374 26.8678H133.426V24.8194H138.308V26.8554H139.359V23.7351H138.536V16.3441H134.051L133.88 19.9237C133.77 22.2826 133.34 23.2551 132.854 23.7351H132.374V26.8678ZM134.146 23.7351C134.562 22.9613 134.842 21.7156 134.931 19.9237L135.045 17.4449H137.484V23.7351H134.146Z" fill="white"/>
<path d="M9.88081 145.696H4.27002V154.171H5.36377V146.788H8.78706V154.171H9.88081V145.696Z" fill="white"/>
<path d="M19.0992 148.452C18.8506 146.639 17.6326 145.58 16.0949 145.58C14.2128 145.58 12.8244 147.223 12.8244 149.933C12.8244 152.644 14.2057 154.287 16.0949 154.287C17.693 154.287 18.8613 153.12 19.0992 151.444L17.9913 151.44C17.803 152.524 17.0218 153.12 16.102 153.12C14.8556 153.12 13.9145 152.007 13.9145 149.933C13.9145 147.877 14.852 146.747 16.1056 146.747C17.0324 146.747 17.8101 147.355 17.9913 148.452H19.0992Z" fill="white"/>
<path d="M26.2198 154.171H27.5585L24.5578 149.528L27.5763 145.696H26.2162L23.386 149.275H23.0095V145.696H21.9122V154.171H23.0095V150.372H23.7624L26.2198 154.171Z" fill="white"/>
<path d="M36.1262 149.933C36.1262 147.223 34.7342 145.58 32.8521 145.58C30.9628 145.58 29.5744 147.223 29.5744 149.933C29.5744 152.64 30.9628 154.287 32.8521 154.287C34.7342 154.287 36.1262 152.644 36.1262 149.933ZM35.0396 149.933C35.0396 151.998 34.1021 153.12 32.8521 153.12C31.5985 153.12 30.6646 151.998 30.6646 149.933C30.6646 147.868 31.5985 146.747 32.8521 146.747C34.1021 146.747 35.0396 147.868 35.0396 149.933Z" fill="white"/>
<path d="M38.9943 154.171H41.7819C43.4723 154.171 44.2357 153.19 44.2357 151.891C44.2357 150.579 43.4474 149.838 42.7265 149.793V149.71C43.3941 149.511 43.9517 148.982 43.9517 147.922C43.9517 146.668 43.2059 145.696 41.6576 145.696H38.9943V154.171ZM40.0916 153.074V150.36H41.7144C42.5951 150.36 43.1455 151.022 43.1455 151.829C43.1455 152.54 42.7301 153.074 41.6754 153.074H40.0916ZM40.0916 149.362V146.784H41.5902C42.4602 146.784 42.8757 147.318 42.8757 148.021C42.8757 148.841 42.3004 149.362 41.5617 149.362H40.0916Z" fill="white"/>
<path d="M167.482 178.259H169.748V185.634H170.841V178.259H173.11V177.158H167.482V178.259Z" fill="white"/>
<path d="M175.854 185.634H178.642C180.332 185.634 181.096 184.653 181.096 183.353C181.096 182.042 180.307 181.301 179.587 181.255V181.173C180.254 180.974 180.812 180.444 180.812 179.385C180.812 178.131 180.066 177.158 178.518 177.158H175.854V185.634ZM176.952 184.537V181.822H178.574C179.455 181.822 180.006 182.484 180.006 183.291C180.006 184.003 179.59 184.537 178.535 184.537H176.952ZM176.952 180.825V178.247H178.45C179.32 178.247 179.736 178.781 179.736 179.484C179.736 180.304 179.16 180.825 178.422 180.825H176.952Z" fill="white"/>
<path d="M183.897 185.634H188.5V184.533H184.995V181.938H188.219V180.842H184.995V178.259H188.457V177.158H183.897V185.634Z" fill="white"/>
<path d="M191.423 185.634H192.52V182.654H194.011C195.698 182.654 196.533 181.466 196.533 179.902C196.533 178.342 195.705 177.158 194.015 177.158H191.423V185.634ZM192.52 181.57V178.255H193.898C194.984 178.255 195.428 178.942 195.428 179.902C195.428 180.862 194.984 181.57 193.912 181.57H192.52Z" fill="white"/>
<path d="M200.427 180.577V177.158H199.326V185.634H202.05C203.669 185.634 204.596 184.583 204.593 183.064C204.596 181.549 203.669 180.577 202.05 180.577H200.427ZM200.427 181.653H202.05C202.991 181.653 203.509 182.282 203.509 183.047C203.509 183.834 202.991 184.558 202.05 184.558H200.427V181.653Z" fill="white"/>
<path d="M265.651 211.272V202.797H263.059C261.372 202.797 260.541 203.893 260.541 205.453C260.541 206.591 260.985 207.456 261.876 207.841L260.264 211.272H261.514L262.991 208.065C263.016 208.065 263.038 208.065 263.062 208.065H264.554V211.272H265.651ZM264.554 206.964H263.162C262.093 206.964 261.646 206.409 261.646 205.453C261.646 204.493 262.093 203.893 263.176 203.893H264.554V206.964Z" fill="white"/>
<path d="M268.746 211.272H269.843V208.292H271.334C273.021 208.292 273.856 207.105 273.856 205.54C273.856 203.98 273.028 202.797 271.338 202.797H268.746V211.272ZM269.843 207.208V203.893H271.221C272.307 203.893 272.751 204.58 272.751 205.54C272.751 206.5 272.307 207.208 271.235 207.208H269.843Z" fill="white"/>
<path d="M282.96 207.034C282.96 204.324 281.568 202.681 279.686 202.681C277.796 202.681 276.408 204.324 276.408 207.034C276.408 209.741 277.796 211.388 279.686 211.388C281.568 211.388 282.96 209.745 282.96 207.034ZM281.873 207.034C281.873 209.099 280.936 210.221 279.686 210.221C278.432 210.221 277.498 209.099 277.498 207.034C277.498 204.969 278.432 203.848 279.686 203.848C280.936 203.848 281.873 204.969 281.873 207.034Z" fill="white"/>
<path d="M291.868 205.553C291.62 203.74 290.402 202.681 288.864 202.681C286.982 202.681 285.593 204.324 285.593 207.034C285.593 209.745 286.975 211.388 288.864 211.388C290.462 211.388 291.63 210.221 291.868 208.545L290.76 208.541C290.572 209.625 289.791 210.221 288.871 210.221C287.625 210.221 286.684 209.107 286.684 207.034C286.684 204.977 287.621 203.848 288.875 203.848C289.801 203.848 290.579 204.456 290.76 205.553H291.868Z" fill="white"/>
<path d="M294.131 211.272H294.443C296.098 211.272 296.496 209.84 296.592 207.117L296.705 203.881H299.188V211.272H300.271V202.797H295.672L295.548 206.778C295.47 209.232 295.214 210.13 294.344 210.154L294.131 210.163V211.272Z" fill="white"/>
<path d="M303.983 211.272L304.651 209.029H307.492L308.156 211.272H309.32L306.703 202.797H305.436L302.818 211.272H303.983ZM304.97 207.953L306.043 204.336H306.1L307.172 207.953H304.97Z" fill="white"/>
<path d="M311.871 211.272H314.658C316.349 211.272 317.112 210.291 317.112 208.992C317.112 207.68 316.324 206.939 315.603 206.893V206.811C316.271 206.612 316.828 206.082 316.828 205.023C316.828 203.769 316.082 202.797 314.534 202.797H311.871V211.272ZM312.968 210.175V207.46H314.591C315.472 207.46 316.022 208.123 316.022 208.93C316.022 209.641 315.606 210.175 314.552 210.175H312.968ZM312.968 206.463V203.885H314.467C315.337 203.885 315.752 204.419 315.752 205.122C315.752 205.942 315.177 206.463 314.438 206.463H312.968Z" fill="white"/>
<path d="M319.363 211.272H319.676C321.331 211.272 321.728 209.84 321.824 207.117L321.938 203.881H324.42V211.272H325.503V202.797H320.904L320.78 206.778C320.702 209.232 320.446 210.13 319.576 210.154L319.363 210.163V211.272Z" fill="white"/>
<path d="M329.709 206.215V202.797H328.608V211.272H331.332C332.951 211.272 333.878 210.221 333.875 208.702C333.878 207.187 332.951 206.215 331.332 206.215H329.709ZM329.709 207.291H331.332C332.273 207.291 332.792 207.92 332.792 208.685C332.792 209.472 332.273 210.196 331.332 210.196H329.709V207.291Z" fill="white"/>
<path d="M343.802 132.876V141.351H344.846V135.214H344.913L347.058 141.339H347.925L350.07 135.218H350.137V141.351H351.181V132.876H349.849L347.534 139.464H347.449L345.133 132.876H343.802Z" fill="white"/>
<path d="M355.076 141.351L355.744 139.108H358.585L359.249 141.351H360.414L357.796 132.876H356.529L353.911 141.351H355.076ZM356.063 138.032L357.136 134.416H357.193L358.265 138.032H356.063Z" fill="white"/>
<path d="M362.964 141.351H364.061V137.656H367.687V141.351H368.788V132.876H367.687V136.559H364.061V132.876H362.964V141.351Z" fill="white"/>
<path d="M371.527 133.977H373.793V141.351H374.886V133.977H377.156V132.876H371.527V133.977Z" fill="white"/>
<path d="M380.414 141.467H380.911C382.048 141.467 382.424 140.727 382.744 139.882L385.258 132.876H384.108L382.41 137.776L380.503 132.876H379.338L381.895 139.237L381.792 139.539C381.636 139.982 381.394 140.342 380.851 140.342H380.414V141.467Z" fill="white"/>
<path d="M387.796 141.351H388.893V138.372H390.385C392.071 138.372 392.906 137.184 392.906 135.62C392.906 134.06 392.079 132.876 390.388 132.876H387.796V141.351ZM388.893 137.288V133.973H390.271C391.358 133.973 391.802 134.66 391.802 135.62C391.802 136.58 391.358 137.288 390.285 137.288H388.893Z" fill="white"/>
<path d="M402.01 137.114C402.01 134.403 400.618 132.76 398.736 132.76C396.847 132.76 395.458 134.403 395.458 137.114C395.458 139.82 396.847 141.467 398.736 141.467C400.618 141.467 402.01 139.824 402.01 137.114ZM400.923 137.114C400.923 139.179 399.986 140.3 398.736 140.3C397.482 140.3 396.548 139.179 396.548 137.114C396.548 135.049 397.482 133.927 398.736 133.927C399.986 133.927 400.923 135.049 400.923 137.114Z" fill="white"/>
<path d="M404.878 141.351H407.666C409.356 141.351 410.119 140.371 410.119 139.071C410.119 137.759 409.331 137.019 408.61 136.973V136.89C409.278 136.692 409.835 136.162 409.835 135.103C409.835 133.849 409.09 132.876 407.541 132.876H404.878V141.351ZM405.975 140.255V137.54H407.598C408.479 137.54 409.029 138.202 409.029 139.009C409.029 139.721 408.614 140.255 407.559 140.255H405.975ZM405.975 136.543V133.965H407.474C408.344 133.965 408.759 134.498 408.759 135.202C408.759 136.021 408.184 136.543 407.445 136.543H405.975Z" fill="white"/>
<path d="M419.238 137.114C419.238 134.403 417.846 132.76 415.964 132.76C414.075 132.76 412.687 134.403 412.687 137.114C412.687 139.82 414.075 141.467 415.964 141.467C417.846 141.467 419.238 139.824 419.238 137.114ZM418.152 137.114C418.152 139.179 417.214 140.3 415.964 140.3C414.711 140.3 413.777 139.179 413.777 137.114C413.777 135.049 414.711 133.927 415.964 133.927C417.214 133.927 418.152 135.049 418.152 137.114Z" fill="white"/>
<path d="M400.62 173.985H401.958L398.958 169.342L401.976 165.509H400.616L397.786 169.089H397.409V165.509H396.312V173.985H397.409V170.186H398.162L400.62 173.985Z" fill="white"/>
<path d="M410.526 169.747C410.526 167.036 409.134 165.394 407.252 165.394C405.363 165.394 403.974 167.036 403.974 169.747C403.974 172.454 405.363 174.101 407.252 174.101C409.134 174.101 410.526 172.458 410.526 169.747ZM409.439 169.747C409.439 171.812 408.502 172.934 407.252 172.934C405.998 172.934 405.064 171.812 405.064 169.747C405.064 167.682 405.998 166.561 407.252 166.561C408.502 166.561 409.439 167.682 409.439 169.747Z" fill="white"/>
<path d="M412.733 166.61H414.998V173.985H416.092V166.61H418.361V165.509H412.733V166.61Z" fill="white"/>
<path d="M421.105 173.985H425.707V172.884H422.202V170.289H425.427V169.193H422.202V166.61H425.665V165.509H421.105V173.985Z" fill="white"/>
<path d="M428.08 173.985H428.392C430.047 173.985 430.445 172.553 430.541 169.83L430.655 166.594H433.137V173.985H434.22V165.509H429.621L429.497 169.49C429.419 171.944 429.163 172.843 428.293 172.867L428.08 172.876V173.985Z" fill="white"/>
<path d="M438.426 168.928V165.509H437.325V173.985H440.049C441.668 173.985 442.595 172.934 442.591 171.415C442.595 169.9 441.668 168.928 440.049 168.928H438.426ZM438.426 170.004H440.049C440.99 170.004 441.508 170.633 441.508 171.398C441.508 172.185 440.99 172.909 440.049 172.909H438.426V170.004Z" fill="white"/>
<path d="M445.429 173.985H446.527V170.289H450.152V173.985H451.253V165.509H450.152V169.193H446.527V165.509H445.429V173.985Z" fill="white"/>
<path d="M454.351 165.509V173.985H455.36L459.056 167.769H459.124V173.985H460.221V165.509H459.205L455.505 171.733H455.438V165.509H454.351Z" fill="white"/>
<path d="M463.467 165.509V168.307C463.464 170.198 464.447 170.943 466.038 170.943C466.738 170.943 467.342 170.84 467.864 170.666V173.985H468.95V165.509H467.864V169.573C467.32 169.743 466.646 169.846 466.038 169.846C465.09 169.846 464.55 169.474 464.55 168.307V165.509H463.467Z" fill="white"/>
<path d="M475.265 169.213H472.04V170.285H475.265V169.213Z" fill="white"/>
<path d="M480.723 165.509H479.7C479.661 165.741 479.107 166.813 478.045 166.813V167.864C478.869 167.864 479.441 167.483 479.561 167.235H479.622V173.985H480.723V165.509Z" fill="white"/>
<path d="M532.336 210.955H527.801V219.43H528.898V212.056H532.336V210.955Z" fill="white"/>
<path d="M534.522 219.43H534.834C536.489 219.43 536.887 217.998 536.983 215.275L537.096 212.039H539.579V219.43H540.662V210.955H536.063L535.939 214.936C535.861 217.39 535.605 218.288 534.735 218.313L534.522 218.321V219.43Z" fill="white"/>
<path d="M544.374 219.43L545.042 217.187H547.883L548.547 219.43H549.711L547.094 210.955H545.827L543.209 219.43H544.374ZM545.361 216.111L546.434 212.494H546.491L547.563 216.111H545.361Z" fill="white"/>
<path d="M554.694 219.546C556.179 219.546 557.269 218.512 557.265 217.105C557.269 216.033 556.711 215.263 555.745 215.089V215.023C556.505 214.795 556.999 214.1 556.995 213.148C556.999 211.903 556.122 210.839 554.723 210.839C553.387 210.839 552.315 211.779 552.279 213.157H553.341C553.366 212.379 553.995 211.907 554.708 211.907C555.451 211.907 555.937 212.432 555.934 213.215C555.937 214.034 555.373 214.572 554.566 214.572H553.952V215.615H554.566C555.575 215.615 556.157 216.211 556.157 217.063C556.157 217.887 555.543 218.445 554.687 218.445C553.899 218.445 553.284 217.974 553.242 217.22H552.127C552.173 218.603 553.224 219.546 554.694 219.546Z" fill="white"/>
<path d="M566.525 215.193C566.525 212.482 565.132 210.839 563.25 210.839C561.361 210.839 559.973 212.482 559.973 215.193C559.973 217.899 561.361 219.546 563.25 219.546C565.132 219.546 566.525 217.903 566.525 215.193ZM565.438 215.193C565.438 217.258 564.5 218.379 563.25 218.379C561.997 218.379 561.063 217.258 561.063 215.193C561.063 213.128 561.997 212.006 563.25 212.006C564.5 212.006 565.438 213.128 565.438 215.193Z" fill="white"/>
<path d="M569.393 219.43H572.18C573.871 219.43 574.634 218.449 574.634 217.15C574.634 215.838 573.846 215.097 573.125 215.052V214.969C573.792 214.771 574.35 214.241 574.35 213.181C574.35 211.927 573.604 210.955 572.056 210.955H569.393V219.43ZM570.49 218.334V215.619H572.113C572.993 215.619 573.544 216.281 573.544 217.088C573.544 217.8 573.128 218.334 572.074 218.334H570.49ZM570.49 214.622V212.043H571.988C572.858 212.043 573.274 212.577 573.274 213.281C573.274 214.1 572.699 214.622 571.96 214.622H570.49Z" fill="white"/>
<path d="M535.567 135.817H529.956V144.293H531.05V136.91H534.473V144.293H535.567V135.817Z" fill="white"/>
<path d="M538.745 144.293H543.347V143.192H539.842V140.597H543.066V139.5H539.842V136.918H543.304V135.817H538.745V144.293Z" fill="white"/>
<path d="M546.27 144.293H547.367V141.313H548.859C550.546 141.313 551.38 140.125 551.38 138.561C551.38 137.001 550.553 135.817 548.862 135.817H546.27V144.293ZM547.367 140.229V136.914H548.745C549.832 136.914 550.276 137.601 550.276 138.561C550.276 139.521 549.832 140.229 548.759 140.229H547.367Z" fill="white"/>
<path d="M554.167 135.817V144.293H555.211V138.156H555.278L557.423 144.28H558.29L560.434 138.16H560.502V144.293H561.546V135.817H560.214L557.899 142.406H557.814L555.498 135.817H554.167Z" fill="white"/>
<path d="M565.935 139.236V135.817H564.834V144.293H567.558C569.177 144.293 570.104 143.242 570.1 141.723C570.104 140.208 569.177 139.236 567.558 139.236H565.935ZM565.935 140.312H567.558C568.499 140.312 569.017 140.941 569.017 141.706C569.017 142.492 568.499 143.217 567.558 143.217H565.935V140.312Z" fill="white"/>
<path d="M602.441 180.592H604.707V187.966H605.801V180.592H608.07V179.491H602.441V180.592Z" fill="white"/>
<path d="M611.911 179.491H610.814V187.966H611.911V184.366H613.186C613.385 186.692 614.699 188.082 616.435 188.082C618.317 188.082 619.709 186.439 619.709 183.729C619.709 181.018 618.317 179.375 616.435 179.375C614.649 179.375 613.31 180.844 613.168 183.294H611.911V179.491ZM618.623 183.729C618.623 185.794 617.685 186.915 616.435 186.915C615.182 186.915 614.248 185.794 614.248 183.729C614.248 181.663 615.182 180.542 616.435 180.542C617.685 180.542 618.623 181.663 618.623 183.729Z" fill="white"/>
<path d="M622.392 179.491V187.966H623.436V181.829H623.503L625.648 187.954H626.515L628.66 181.833H628.727V187.966H629.771V179.491H628.439L626.124 186.079H626.039L623.724 179.491H622.392Z" fill="white"/>
<path d="M633.052 187.966H637.654V186.865H634.149V184.271H637.374V183.174H634.149V180.592H637.612V179.491H633.052V187.966Z" fill="white"/>
<path d="M640.577 187.966H641.675V184.271H645.3V187.966H646.401V179.491H645.3V183.174H641.675V179.491H640.577V187.966Z" fill="white"/>
<path d="M650.607 182.909V179.491H649.506V187.966H652.23C653.849 187.966 654.776 186.915 654.773 185.396C654.776 183.882 653.849 182.909 652.23 182.909H650.607ZM650.607 183.985H652.23C653.171 183.985 653.69 184.614 653.69 185.38C653.69 186.166 653.171 186.89 652.23 186.89H650.607V183.985Z" fill="white"/>
<path d="M701.456 209.364C701.456 206.654 700.064 205.011 698.182 205.011C696.293 205.011 694.904 206.654 694.904 209.364C694.904 212.071 696.293 213.718 698.182 213.718C700.064 213.718 701.456 212.075 701.456 209.364ZM700.369 209.364C700.369 211.429 699.432 212.551 698.182 212.551C696.928 212.551 695.994 211.429 695.994 209.364C695.994 207.299 696.928 206.178 698.182 206.178C699.432 206.178 700.369 207.299 700.369 209.364Z" fill="white"/>
<path d="M704.324 205.127V213.602H705.368V207.465H705.436L707.581 213.589H708.447L710.592 207.469H710.659V213.602H711.703V205.127H710.372L708.056 211.715H707.971L705.656 205.127H704.324Z" fill="white"/>
<path d="M721.025 207.883C720.776 206.07 719.558 205.011 718.021 205.011C716.138 205.011 714.75 206.654 714.75 209.364C714.75 212.075 716.131 213.718 718.021 213.718C719.619 213.718 720.787 212.551 721.025 210.875L719.917 210.871C719.729 211.955 718.947 212.551 718.028 212.551C716.781 212.551 715.84 211.438 715.84 209.364C715.84 207.308 716.778 206.178 718.031 206.178C718.958 206.178 719.736 206.786 719.917 207.883H721.025Z" fill="white"/>
<path d="M728.145 213.602H729.484L726.483 208.959L729.502 205.127H728.142L725.312 208.706H724.935V205.127H723.838V213.602H724.935V209.803H725.688L728.145 213.602Z" fill="white"/>
<path d="M809.381 121.541H810.72L807.719 116.898L810.737 113.066H809.377L806.547 116.646H806.171V113.066H805.073V121.541H806.171V117.742H806.923L809.381 121.541Z" fill="white"/>
<path d="M813.331 121.541H814.428V118.562H815.92C817.607 118.562 818.441 117.374 818.441 115.81C818.441 114.25 817.614 113.066 815.923 113.066H813.331V121.541ZM814.428 117.478V114.163H815.806C816.893 114.163 817.337 114.85 817.337 115.81C817.337 116.77 816.893 117.478 815.82 117.478H814.428Z" fill="white"/>
<path d="M821.07 121.541L821.738 119.298H824.579L825.243 121.541H826.408L823.791 113.066H822.523L819.906 121.541H821.07ZM822.058 118.222L823.13 114.606H823.187L824.259 118.222H822.058Z" fill="white"/>
<path d="M834.657 115.822C834.408 114.01 833.19 112.95 831.652 112.95C829.77 112.95 828.382 114.593 828.382 117.304C828.382 120.014 829.763 121.657 831.652 121.657C833.25 121.657 834.419 120.49 834.657 118.814L833.549 118.81C833.361 119.894 832.579 120.49 831.66 120.49C830.413 120.49 829.472 119.377 829.472 117.304C829.472 115.247 830.41 114.117 831.663 114.117C832.59 114.117 833.368 114.726 833.549 115.822H834.657Z" fill="white"/>
<path d="M837.47 121.541H838.567V117.846H842.193V121.541H843.294V113.066H842.193V116.749H838.567V113.066H837.47V121.541Z" fill="white"/>
<path d="M852.709 117.304C852.709 114.593 851.317 112.95 849.435 112.95C847.546 112.95 846.157 114.593 846.157 117.304C846.157 120.01 847.546 121.657 849.435 121.657C851.317 121.657 852.709 120.014 852.709 117.304ZM851.622 117.304C851.622 119.369 850.685 120.49 849.435 120.49C848.181 120.49 847.247 119.369 847.247 117.304C847.247 115.239 848.181 114.117 849.435 114.117C850.685 114.117 851.622 115.239 851.622 117.304Z" fill="white"/>
<path d="M860.428 121.541V113.066H857.836C856.149 113.066 855.318 114.163 855.318 115.723C855.318 116.861 855.762 117.726 856.653 118.111L855.041 121.541H856.291L857.768 118.334C857.793 118.334 857.814 118.334 857.839 118.334H859.331V121.541H860.428ZM859.331 117.233H857.939C856.87 117.233 856.422 116.679 856.422 115.723C856.422 114.763 856.87 114.163 857.953 114.163H859.331V117.233Z" fill="white"/>
<path d="M863.522 121.541H864.62V118.562H866.111C867.798 118.562 868.633 117.374 868.633 115.81C868.633 114.25 867.805 113.066 866.115 113.066H863.522V121.541ZM864.62 117.478V114.163H865.998C867.084 114.163 867.528 114.85 867.528 115.81C867.528 116.77 867.084 117.478 866.012 117.478H864.62Z" fill="white"/>
<path d="M877.459 115.822C877.211 114.01 875.993 112.95 874.455 112.95C872.573 112.95 871.185 114.593 871.185 117.304C871.185 120.014 872.566 121.657 874.455 121.657C876.053 121.657 877.222 120.49 877.459 118.814L876.351 118.81C876.163 119.894 875.382 120.49 874.462 120.49C873.216 120.49 872.275 119.377 872.275 117.304C872.275 115.247 873.212 114.117 874.466 114.117C875.393 114.117 876.17 114.726 876.351 115.822H877.459Z" fill="white"/>
<path d="M884.58 121.541H885.919L882.918 116.898L885.937 113.066H884.576L881.746 116.646H881.37V113.066H880.272V121.541H881.37V117.742H882.123L884.58 121.541Z" fill="white"/>
<path d="M879.895 188.082H880.392C881.528 188.082 881.905 187.341 882.224 186.497L884.739 179.491H883.588L881.891 184.391L879.984 179.491H878.819L881.376 185.851L881.273 186.154C881.116 186.596 880.875 186.956 880.332 186.956H879.895V188.082Z" fill="white"/>
<path d="M886.726 187.966H887.038C888.693 187.966 889.091 186.534 889.187 183.811L889.301 180.575H891.783V187.966H892.866V179.491H888.267L888.143 183.472C888.065 185.926 887.809 186.824 886.939 186.849L886.726 186.857V187.966Z" fill="white"/>
<path d="M896.578 187.966L897.246 185.723H900.087L900.751 187.966H901.916L899.298 179.491H898.031L895.413 187.966H896.578ZM897.565 184.647L898.638 181.03H898.695L899.767 184.647H897.565Z" fill="white"/>
<path d="M904.466 187.966H905.563V184.271H909.189V187.966H910.29V179.491H909.189V183.174H905.563V179.491H904.466V187.966Z" fill="white"/>
<path d="M916.516 183.195H913.292V184.266H916.516V183.195Z" fill="white"/>
<path d="M919.397 188.082H919.894C921.03 188.082 921.407 187.341 921.726 186.497L924.241 179.491H923.09L921.393 184.391L919.486 179.491H918.321L920.878 185.851L920.775 186.154C920.618 186.596 920.377 186.956 919.834 186.956H919.397V188.082Z" fill="white"/>
<path d="M926.228 190.015H927.279V187.966H932.162V190.002H933.213V186.882H932.389V179.491H927.904L927.734 183.071C927.624 185.429 927.194 186.402 926.707 186.882H926.228V190.015ZM928 186.882C928.415 186.108 928.696 184.862 928.785 183.071L928.898 180.592H931.338V186.882H928Z" fill="white"/>
<path d="M935.684 185.276C935.823 186.882 936.725 188.082 938.479 188.082C940.233 188.082 941.355 186.555 941.355 184.18V183.298C941.355 180.923 940.219 179.375 938.419 179.375C936.707 179.375 935.823 180.592 935.681 182.23H936.799C936.913 181.13 937.357 180.476 938.419 180.476C939.587 180.476 940.24 181.577 940.244 183.29H937.563V184.374H940.24C940.194 185.868 939.633 186.998 938.479 186.998C937.389 186.998 936.924 186.394 936.799 185.276H935.684Z" fill="white"/>
<path d="M110.746 39.1933C110.746 41.4413 109.182 43.2637 107.253 43.2637C105.324 43.2637 103.76 41.4413 103.76 39.1933C103.76 36.9452 105.324 35.1228 107.253 35.1228C109.182 35.1228 110.746 36.9452 110.746 39.1933Z" fill="#272722"/>
<path fill-rule="evenodd" clip-rule="evenodd" d="M107.253 42.0984C108.629 42.0984 109.746 40.7977 109.746 39.1933C109.746 37.5888 108.629 36.2882 107.253 36.2882C105.876 36.2882 104.76 37.5888 104.76 39.1933C104.76 40.7977 105.876 42.0984 107.253 42.0984ZM107.253 43.2637C109.182 43.2637 110.746 41.4413 110.746 39.1933C110.746 36.9452 109.182 35.1228 107.253 35.1228C105.324 35.1228 103.76 36.9452 103.76 39.1933C103.76 41.4413 105.324 43.2637 107.253 43.2637Z" fill="white"/>
<path d="M24.9848 133.77C24.9848 136.018 23.421 137.841 21.4919 137.841C19.5629 137.841 17.999 136.018 17.999 133.77C17.999 131.522 19.5629 129.7 21.4919 129.7C23.421 129.7 24.9848 131.522 24.9848 133.77Z" fill="#131313"/>
<path fill-rule="evenodd" clip-rule="evenodd" d="M21.4919 136.676C22.8687 136.676 23.9848 135.375 23.9848 133.77C23.9848 132.166 22.8687 130.865 21.4919 130.865C20.1151 130.865 18.999 132.166 18.999 133.77C18.999 135.375 20.1151 136.676 21.4919 136.676ZM21.4919 137.841C23.421 137.841 24.9848 136.018 24.9848 133.77C24.9848 131.522 23.421 129.7 21.4919 129.7C19.5629 129.7 17.999 131.522 17.999 133.77C17.999 136.018 19.5629 137.841 21.4919 137.841Z" fill="white"/>
<path d="M219.023 181.659C219.023 183.907 217.459 185.729 215.53 185.729C213.601 185.729 212.037 183.907 212.037 181.659C212.037 179.411 213.601 177.588 215.53 177.588C217.459 177.588 219.023 179.411 219.023 181.659Z" fill="#4D5648"/>
<path fill-rule="evenodd" clip-rule="evenodd" d="M215.53 184.564C216.907 184.564 218.023 183.263 218.023 181.659C218.023 180.054 216.907 178.754 215.53 178.754C214.153 178.754 213.037 180.054 213.037 181.659C213.037 183.263 214.153 184.564 215.53 184.564ZM215.53 185.729C217.459 185.729 219.023 183.907 219.023 181.659C219.023 179.411 217.459 177.588 215.53 177.588C213.601 177.588 212.037 179.411 212.037 181.659C212.037 183.907 213.601 185.729 215.53 185.729Z" fill="white"/>
<path d="M251.334 207.102C251.334 209.35 249.771 211.172 247.842 211.172C245.912 211.172 244.349 209.35 244.349 207.102C244.349 204.854 245.912 203.031 247.842 203.031C249.771 203.031 251.334 204.854 251.334 207.102Z" fill="#47443E"/>
<path fill-rule="evenodd" clip-rule="evenodd" d="M247.842 210.007C249.218 210.007 250.334 208.706 250.334 207.102C250.334 205.498 249.218 204.197 247.842 204.197C246.465 204.197 245.349 205.498 245.349 207.102C245.349 208.706 246.465 210.007 247.842 210.007ZM247.842 211.172C249.771 211.172 251.334 209.35 251.334 207.102C251.334 204.854 249.771 203.031 247.842 203.031C245.912 203.031 244.349 204.854 244.349 207.102C244.349 209.35 245.912 211.172 247.842 211.172Z" fill="white"/>
<path d="M339.53 148.079C339.53 150.328 337.966 152.15 336.037 152.15C334.108 152.15 332.544 150.328 332.544 148.079C332.544 145.831 334.108 144.009 336.037 144.009C337.966 144.009 339.53 145.831 339.53 148.079Z" fill="#93A47C"/>
<path fill-rule="evenodd" clip-rule="evenodd" d="M336.037 150.985C337.414 150.985 338.53 149.684 338.53 148.079C338.53 146.475 337.414 145.174 336.037 145.174C334.661 145.174 333.544 146.475 333.544 148.079C333.544 149.684 334.661 150.985 336.037 150.985ZM336.037 152.15C337.966 152.15 339.53 150.328 339.53 148.079C339.53 145.831 337.966 144.009 336.037 144.009C334.108 144.009 332.544 145.831 332.544 148.079C332.544 150.328 334.108 152.15 336.037 152.15Z" fill="white"/>
<path d="M417.249 187.767C417.249 190.015 415.685 191.837 413.756 191.837C411.827 191.837 410.263 190.015 410.263 187.767C410.263 185.519 411.827 183.696 413.756 183.696C415.685 183.696 417.249 185.519 417.249 187.767Z" fill="#738F8C"/>
<path fill-rule="evenodd" clip-rule="evenodd" d="M413.756 190.672C415.133 190.672 416.249 189.371 416.249 187.767C416.249 186.162 415.133 184.862 413.756 184.862C412.379 184.862 411.263 186.162 411.263 187.767C411.263 189.371 412.379 190.672 413.756 190.672ZM413.756 191.837C415.685 191.837 417.249 190.015 417.249 187.767C417.249 185.519 415.685 183.696 413.756 183.696C411.827 183.696 410.263 185.519 410.263 187.767C410.263 190.015 411.827 191.837 413.756 191.837Z" fill="white"/>
<path d="M519.415 215.244C519.415 217.492 517.851 219.314 515.922 219.314C513.993 219.314 512.429 217.492 512.429 215.244C512.429 212.996 513.993 211.173 515.922 211.173C517.851 211.173 519.415 212.996 519.415 215.244Z" fill="#789186"/>
<path fill-rule="evenodd" clip-rule="evenodd" d="M515.922 218.149C517.298 218.149 518.415 216.848 518.415 215.244C518.415 213.639 517.298 212.338 515.922 212.338C514.545 212.338 513.429 213.639 513.429 215.244C513.429 216.848 514.545 218.149 515.922 218.149ZM515.922 219.314C517.851 219.314 519.415 217.492 519.415 215.244C519.415 212.996 517.851 211.173 515.922 211.173C513.993 211.173 512.429 212.996 512.429 215.244C512.429 217.492 513.993 219.314 515.922 219.314Z" fill="white"/>
<path d="M552.597 155.206C552.597 157.454 551.033 159.276 549.104 159.276C547.175 159.276 545.611 157.454 545.611 155.206C545.611 152.958 547.175 151.135 549.104 151.135C551.033 151.135 552.597 152.958 552.597 155.206Z" fill="#8CBABB"/>
<path fill-rule="evenodd" clip-rule="evenodd" d="M549.104 158.111C550.481 158.111 551.597 156.81 551.597 155.206C551.597 153.601 550.481 152.301 549.104 152.301C547.727 152.301 546.611 153.601 546.611 155.206C546.611 156.81 547.727 158.111 549.104 158.111ZM549.104 159.276C551.033 159.276 552.597 157.454 552.597 155.206C552.597 152.958 551.033 151.135 549.104 151.135C547.175 151.135 545.611 152.958 545.611 155.206C545.611 157.454 547.175 159.276 549.104 159.276Z" fill="white"/>
<path d="M609.355 200.998C609.355 203.246 607.791 205.068 605.862 205.068C603.933 205.068 602.369 203.246 602.369 200.998C602.369 198.75 603.933 196.927 605.862 196.927C607.791 196.927 609.355 198.75 609.355 200.998Z" fill="#414847"/>
<path fill-rule="evenodd" clip-rule="evenodd" d="M605.862 203.903C607.239 203.903 608.355 202.602 608.355 200.998C608.355 199.393 607.239 198.093 605.862 198.093C604.485 198.093 603.369 199.393 603.369 200.998C603.369 202.602 604.485 203.903 605.862 203.903ZM605.862 205.068C607.791 205.068 609.355 203.246 609.355 200.998C609.355 198.75 607.791 196.927 605.862 196.927C603.933 196.927 602.369 198.75 602.369 200.998C602.369 203.246 603.933 205.068 605.862 205.068Z" fill="white"/>
<path d="M715.02 185.731C715.02 187.979 713.456 189.801 711.527 189.801C709.598 189.801 708.034 187.979 708.034 185.731C708.034 183.483 709.598 181.66 711.527 181.66C713.456 181.66 715.02 183.483 715.02 185.731Z" fill="#577379"/>
<path fill-rule="evenodd" clip-rule="evenodd" d="M711.527 188.636C712.903 188.636 714.02 187.335 714.02 185.731C714.02 184.126 712.903 182.826 711.527 182.826C710.15 182.826 709.034 184.126 709.034 185.731C709.034 187.335 710.15 188.636 711.527 188.636ZM711.527 189.801C713.456 189.801 715.02 187.979 715.02 185.731C715.02 183.483 713.456 181.66 711.527 181.66C709.598 181.66 708.034 183.483 708.034 185.731C708.034 187.979 709.598 189.801 711.527 189.801Z" fill="white"/>
<path d="M849.95 130.78C849.95 133.028 848.386 134.85 846.457 134.85C844.528 134.85 842.964 133.028 842.964 130.78C842.964 128.532 844.528 126.709 846.457 126.709C848.386 126.709 849.95 128.532 849.95 130.78Z" fill="#3E403A"/>
<path fill-rule="evenodd" clip-rule="evenodd" d="M846.457 133.685C847.834 133.685 848.95 132.384 848.95 130.78C848.95 129.175 847.834 127.875 846.457 127.875C845.08 127.875 843.964 129.175 843.964 130.78C843.964 132.384 845.08 133.685 846.457 133.685ZM846.457 134.85C848.386 134.85 849.95 133.028 849.95 130.78C849.95 128.532 848.386 126.709 846.457 126.709C844.528 126.709 842.964 128.532 842.964 130.78C842.964 133.028 844.528 134.85 846.457 134.85Z" fill="white"/>
<path d="M912.988 162.902C912.988 165.151 911.424 166.973 909.495 166.973C907.566 166.973 906.002 165.151 906.002 162.902C906.002 160.654 907.566 158.832 909.495 158.832C911.424 158.832 912.988 160.654 912.988 162.902Z" fill="#181A19"/>
<path fill-rule="evenodd" clip-rule="evenodd" d="M909.495 165.808C910.872 165.808 911.988 164.507 911.988 162.902C911.988 161.298 910.872 159.997 909.495 159.997C908.118 159.997 907.002 161.298 907.002 162.902C907.002 164.507 908.118 165.808 909.495 165.808ZM909.495 166.973C911.424 166.973 912.988 165.151 912.988 162.902C912.988 160.654 911.424 158.832 909.495 158.832C907.566 158.832 906.002 160.654 906.002 162.902C906.002 165.151 907.566 166.973 909.495 166.973Z" fill="white"/>
</g>
<defs>
<filter id="filter0_d" x="0.27002" y="0.208008" width="945.085" height="270.991" filterUnits="userSpaceOnUse" color-interpolation-filters="sRGB">
<feFlood flood-opacity="0" result="BackgroundImageFix"/>
<feColorMatrix in="SourceAlpha" type="matrix" values="0 0 0 0 0 0 0 0 0 0 0 0 0 0 0 0 0 0 127 0"/>
<feOffset dy="4"/>
<feGaussianBlur stdDeviation="2"/>
<feColorMatrix type="matrix" values="0 0 0 0 0 0 0 0 0 0 0 0 0 0 0 0 0 0 0.25 0"/>
<feBlend mode="normal" in2="BackgroundImageFix" result="effect1_dropShadow"/>
<feBlend mode="normal" in="SourceGraphic" in2="effect1_dropShadow" result="shape"/>
</filter>
</defs>
</svg>
